<svg width="478" height="481" viewBox="0 0 478 481" fill="none" xmlns="http://www.w3.org/2000/svg">
<path d="M284 301.5H301.5V284V159.5C301.5 81.0756 237.924 17.5 159.5 17.5C81.0756 17.5 17.5 81.0756 17.5 159.5C17.5 237.924 81.0756 301.5 159.5 301.5H284Z" fill="white" stroke="black" stroke-width="35"/>
<path d="M178.881 445.664L179.212 463.161L196.708 462.83L321.186 460.474C399.597 458.991 461.958 394.224 460.475 315.814C458.991 237.403 394.224 175.042 315.814 176.525C237.403 178.009 175.042 242.776 176.525 321.186L178.881 445.664Z" fill="white" stroke="black" stroke-width="35"/>
<rect x="159" y="284" width="160" height="35" fill="black"/>
<rect x="284" y="161" width="35" height="158" fill="black"/>
<rect x="222" y="196" width="97" height="123" fill="black"/>
<rect x="192" y="236" width="97" height="83" fill="black"/>
<path d="M284 301.5H301.5V284V159.5C301.5 81.0756 237.924 17.5 159.5 17.5C81.0756 17.5 17.5 81.0756 17.5 159.5C17.5 237.924 81.0756 301.5 159.5 301.5H284Z" fill="white" stroke="black" stroke-width="35"/>
<path d="M178.881 445.664L179.212 463.161L196.708 462.83L321.186 460.474C399.597 458.991 461.958 394.224 460.475 315.814C458.991 237.403 394.224 175.042 315.814 176.525C237.403 178.009 175.042 242.776 176.525 321.186L178.881 445.664Z" fill="white" stroke="black" stroke-width="35"/>
<rect x="159" y="284" width="160" height="35" fill="black"/>
<rect x="284" y="161" width="35" height="158" fill="black"/>
<rect x="222" y="196" width="97" height="123" fill="black"/>
<rect x="192" y="236" width="97" height="83" fill="black"/>
</svg>
